<?xml version="1.0" encoding="utf-8"?>
<!-- Generator: Adobe Illustrator 18.1.1, SVG Export Plug-In . SVG Version: 6.00 Build 0)  -->
<!DOCTYPE svg PUBLIC "-//W3C//DTD SVG 1.1//EN" "http://www.w3.org/Graphics/SVG/1.1/DTD/svg11.dtd">
<svg version="1.1" id="Layer_1" xmlns="http://www.w3.org/2000/svg" xmlns:xlink="http://www.w3.org/1999/xlink" x="0px" y="0px"
	 viewBox="0 0 80 20" enable-background="new 0 0 80 20" xml:space="preserve">
<g>
	<path fill-rule="evenodd" clip-rule="evenodd" fill="#FFFFFF" d="M24.819128,13.5536261
		c-0.7282887-1.3279104-1.9706421-1.8562822-3.4127808-1.8562822c-2.09902,0-3.7696915,1.4850626-3.7696915,3.9983578
		c0,2.5558243,1.5706482,3.997963,3.8411007,3.997963c1.4564457,0,2.6987991-0.7996979,3.3841629-2.0134087l-1.5992641-0.8138733
		c-0.357069,0.8569298-0.8996162,1.1139488-1.5849552,1.1139488c-1.1852512,0-1.7277985-0.9853077-1.7277985-2.2846298
		c0-1.2995853,0.4569626-2.284893,1.7277985-2.284893c0.3426037,0,1.028101,0.1856098,1.4278049,1.0424347L24.819128,13.5536261z"/>
	<path fill-rule="evenodd" clip-rule="evenodd" fill="#FFFFFF" d="M28.9015121,13.4108086
		c1.2708378,0,1.8134918,0.9853077,1.8134918,2.1990442c0,1.3851709-0.542654,2.3704786-1.8134918,2.3704786
		c-1.2708359,0-1.8133564-0.9853077-1.8133564-2.2846298C27.0881557,14.3961163,27.6306763,13.4108086,28.9015121,13.4108086z
		 M28.9015121,11.6973438c-2.3703442,0-4.0408859,1.4422684-4.0408859,3.9983578c0,2.5558243,1.6705418,3.997963,4.0408859,3.997963
		s4.0410194-1.4421387,4.0410194-3.997963C32.9425316,13.1396122,31.2718582,11.6973438,28.9015121,11.6973438z"/>
	<path fill-rule="evenodd" clip-rule="evenodd" fill="#FFFFFF" d="M33.3989677,19.4936142h2.2276573v-4.7262535
		c0-0.6853628,0.2855034-1.2708368,1.1851234-1.2708368c0.8567963,0,1.0852013,0.4997568,1.0852013,1.2422228v4.7548676h2.2275276
		v-4.6691513c0-0.7710819,0.3855247-1.327939,1.1281242-1.327939c0.8423576,0,1.1423264,0.4854488,1.1423264,1.5564718v4.4406185
		h2.2275276v-5.7971439c0-1.7421083-1.5992622-1.9991264-2.3418617-1.9991264c-0.8852768,0-1.7134628,0.2713261-2.4416466,1.013792
		c-0.4998627-0.6710567-1.1423035-1.013792-2.0134087-1.013792c-0.6853638,0-1.6277466,0.1999178-2.1989136,0.8711061v-0.6711884
		h-2.2276573V19.4936142z"/>
	<path fill-rule="evenodd" clip-rule="evenodd" fill="#FFFFFF" d="M45.3348808,19.4936142h2.2273979v-4.7262535
		c0-0.6853628,0.2856331-1.2708368,1.1851196-1.2708368c0.8569031,0,1.085331,0.4997568,1.085331,1.2422228v4.7548676h2.2276611
		v-4.6691513c0-0.7710819,0.3853951-1.327939,1.127861-1.327939c0.8424911,0,1.1425667,0.4854488,1.1425667,1.5564718v4.4406185
		h2.2273941v-5.7971439c0-1.7421083-1.599369-1.9991264-2.341835-1.9991264c-0.8853073,0-1.7133598,0.2713261-2.4416466,1.013792
		c-0.4995995-0.6710567-1.1423035-1.013792-2.0134087-1.013792c-0.6852341,0-1.6277504,0.1999178-2.1990433,0.8711061v-0.6711884
		h-2.2273979V19.4936142z"/>
	<path fill-rule="evenodd" clip-rule="evenodd" fill="#FFFFFF" d="M61.0547676,13.4108086
		c1.2707062,0,1.813385,0.9853077,1.813385,2.1990442c0,1.3851709-0.5426788,2.3704786-1.813385,2.3704786
		c-1.2709427,0-1.8136177-0.9853077-1.8136177-2.2846298C59.2411499,14.3961163,59.7838249,13.4108086,61.0547676,13.4108086z
		 M61.0547676,11.6973438c-2.3704491,0-4.0410156,1.4422684-4.0410156,3.9983578c0,2.5558243,1.6705666,3.997963,4.0410156,3.997963
		c2.3702393,0,4.0410423-1.4421387,4.0410423-3.997963C65.0958099,13.1396122,63.4250069,11.6973438,61.0547676,11.6973438z"/>
	<path fill-rule="evenodd" clip-rule="evenodd" fill="#FFFFFF" d="M65.694931,19.4936142h2.2274017v-4.7262535
		c0-0.6853628,0.2856293-1.2708368,1.1853561-1.2708368c0.8566666,0,1.0850906,0.4997568,1.0850906,1.2422228v4.7548676h2.2276611
		v-5.6115341c0-1.1423283-0.4998856-2.1847363-2.2990646-2.1847363c-0.6852341,0-1.6277466,0.1999178-2.1990433,0.8711061
		v-0.6711884H65.694931V19.4936142z"/>
	<path fill-rule="evenodd" clip-rule="evenodd" fill="#FFFFFF" d="M79.8584824,12.7968531
		c-1.0280991-0.6853657-2.1845779-1.0995092-3.3555222-1.0995092c-1.5424271,0-3.2129669,0.7425976-3.2129669,2.6559801
		c0,2.6986685,4.4978485,1.7564135,4.4978485,2.9415102c0,0.6854973-0.8422241,0.7710819-1.2137375,0.7710819
		c-1.0136566,0-1.7133255-0.4140396-2.3988266-1.0708923l-1.3851471,1.1992683
		c1.1139526,1.0281258,2.0561981,1.4993725,3.7128296,1.4993725c1.6560974,0,3.4269333-0.7141151,3.4269333-2.7130814
		c0-2.841485-4.4978256-1.7705927-4.4978256-3.0700188c0-0.3854227,0.3995743-0.5853405,0.9564285-0.5853405
		c0.6999359,0,1.6566238,0.2855024,2.0990143,0.8138742L79.8584824,12.7968531z"/>
	<path fill-rule="evenodd" clip-rule="evenodd" fill="#FFFFFF" d="M24.819128,4.8142071
		c-0.7282887-1.3279374-1.9706421-1.8563087-3.4127808-1.8563087c-2.09902,0-3.7696915,1.4850628-3.7696915,3.9980938
		c0,2.5559821,1.5706482,3.9982524,3.8411007,3.9982524c1.4564457,0,2.6987991-0.7996979,3.3841629-2.0134344L23.2626553,8.126936
		C22.9055862,8.9837351,22.363039,9.2407532,21.6777,9.2407532c-1.1852512,0-1.7277985-0.9853077-1.7277985-2.284761
		c0-1.2992945,0.4569626-2.2846022,1.7277985-2.2846022c0.3426037,0,1.028101,0.1856074,1.4278049,1.042408L24.819128,4.8142071z"/>
	<path fill-rule="evenodd" clip-rule="evenodd" fill="#FFFFFF" d="M25.3625488,10.7543001h2.2275276V6.3563704
		c0-0.8424902,0.5283699-1.0709209,1.856308-1.2280445l0.2427101-0.028616l-0.014307-1.9704835
		c-0.7853909,0.0572324-1.5992661,0.3427353-2.0847111,0.7996979V3.1578426h-2.2275276V10.7543001z"/>
	<path fill-rule="evenodd" clip-rule="evenodd" fill="#FFFFFF" d="M37.2541122,7.4129553
		c-0.0143089-2.3417296-0.9566917-4.4550571-3.7268753-4.4550571c-2.3132439,0-3.7268982,1.5421636-3.7268982,4.226655
		c0,2.1418114,1.3708611,3.7696915,3.7268982,3.7696915c1.6991577,0,2.9128685-0.6711884,3.6839485-2.0990191l-1.6706734-0.8711066
		c-0.6425438,0.9138989-1.0280991,1.3422456-1.8562775,1.3422456c-0.7138519,0-1.6420593-0.4569626-1.6563683-1.9134092H37.2541122z
		 M31.999382,6.0422254c0.0998917-0.9996161,0.8709793-1.4564466,1.513546-1.4564466
		c0.6425743,0,1.4421425,0.3426294,1.5135498,1.4564466H31.999382z"/>
	<path fill-rule="evenodd" clip-rule="evenodd" fill="#FFFFFF" d="M42.3638573,7.5843887
		c0,1.1565037-0.6568794,1.7419758-1.5278549,1.7419758c-0.5426788,0-1.042408-0.2570448-1.042408-0.8566952
		c0-0.6140594,0.5140343-0.8281803,1.0708923-0.9853058l1.4993706-0.4283199V7.5843887z M44.5056686,5.1569424
		c-0.0143051-1.7135994-1.3136292-2.199044-3.3841629-2.199044c-1.0281029,0-3.055687,0.1999443-3.127121,2.3846538h2.1419449
		c0.1142006-0.7567735,0.4568291-1.0137944,1.1708145-1.0137944c0.5997505,0,1.0567131,0.2427125,1.0567131,0.8138742v0.6282668
		l-0.8140068,0.1142011c-2.4274445,0.3427353-3.898201,0.9853077-3.898201,2.8130002
		c0,1.4564466,1.0853348,2.2561445,2.5417786,2.2561445c0.7995682,0,1.9134102-0.3855543,2.2846298-0.9853344h0.0284843
		c0.0143089,0.2570448,0.0572319,0.5283718,0.1428185,0.7853899h2.0562248
		c-0.1856079-0.4712439-0.1999168-1.0565844-0.1999168-1.5849552V5.1569424z"/>
	<path fill-rule="evenodd" clip-rule="evenodd" fill="#FFFFFF" d="M49.74403,3.3006599h-1.3281746v-2.199044h-2.2276611v2.199044
		h-1.0850677v1.3707302h1.0850677v3.9982257c0,1.0993767,0.2714615,2.2846289,2.1706924,2.2846289
		c0.4854202,0,1.1422997-0.057127,1.4279633-0.085743v-1.756258C49.6723862,9.12642,49.3583717,9.155036,49.1157913,9.155036
		c-0.4001274,0-0.6999359-0.1571274-0.6999359-0.756773V4.6713901H49.74403V3.3006599z"/>
	<path fill-rule="evenodd" clip-rule="evenodd" fill="#FFFFFF" d="M50.5829315,3.1578426v7.5964575h2.2276573V3.1578426H50.5829315z
		 M52.8105888,2.3010178V0.5875526h-2.2276573v1.7134652H52.8105888z"/>
	<polygon fill-rule="evenodd" clip-rule="evenodd" fill="#FFFFFF" points="55.8082771,10.7543001 58.0498505,10.7543001 
		60.6489944,3.1578426 58.2785149,3.1578426 56.9647827,8.5267725 56.9364281,8.5267725 55.622406,3.1578426 53.2380142,3.1578426 	
		"/>
	<path fill-rule="evenodd" clip-rule="evenodd" fill="#FFFFFF" d="M67.8424225,7.4129553
		c-0.0141754-2.3417296-0.9567184-4.4550571-3.7267685-4.4550571c-2.3135109,0-3.7267685,1.5421636-3.7267685,4.226655
		c0,2.1418114,1.3704681,3.7696915,3.7267685,3.7696915c1.6991577,0,2.9128952-0.6711884,3.6839752-2.0990191l-1.6708069-0.8711066
		c-0.6424408,0.9138989-1.0281219,1.3422456-1.8561783,1.3422456c-0.7138481,0-1.6421852-0.4569626-1.6563606-1.9134092H67.8424225z
		 M62.5876656,6.0422254c0.1000252-0.9996161,0.870842-1.4564466,1.513546-1.4564466
		c0.6427078,0,1.4424057,0.3426294,1.5138092,1.4564466H62.5876656z"/>
	<g>
		<path fill-rule="evenodd" clip-rule="evenodd" fill="#FFFFFF" d="M8.2724571,2.8301547
			c-2.2919946,0-4.3088875,0.8481662-5.8674178,2.4295318c-1.6043062,1.6273522-2.4751489,3.7359018-2.4751489,5.9362392
			c0,2.2231464,0.8479021,4.2857857,2.4523404,5.890357c1.6042798,1.6042805,3.6898885,2.4751225,5.8902264,2.4751225
			c2.2003107,0,4.3318005-0.870842,5.981988-2.4980621c1.5585308-1.5357227,2.3836241-3.5754499,2.3836241-5.8674173
			c0-2.2690296-0.8250933-4.3318295-2.4065628-5.9132986C12.6272249,3.6783209,10.5644245,2.8301547,8.2724571,2.8301547z
			 M8.2953968,4.3429365c1.8793554,0,3.5524836,0.7104964,4.8590117,2.0168924
			c1.283349,1.2836137,1.9710112,2.9795504,1.9710112,4.8360968c0,1.8793545-0.6647215,3.529542-1.9481764,4.7903214
			c-1.3523035,1.3292036-3.094121,2.0397005-4.8818464,2.0397005c-1.8106651,0-3.5067315-0.7104969-4.8131294-2.0167599
			c-1.3064225-1.3066607-2.0398595-3.0255375-2.0398595-4.813262c0-1.8106651,0.7334371-3.5295424,2.0398595-4.8590374
			C4.7657232,5.0306244,6.4160161,4.3429365,8.2953968,4.3429365z"/>
		<path fill-rule="evenodd" clip-rule="evenodd" fill="#FFFFFF" d="M8.1875076,9.805872
			C7.714941,8.9441633,6.9088016,8.6012955,5.9728599,8.6012955c-1.3622031,0-2.4464006,0.9636593-2.4464006,2.5946302
			c0,1.6586876,1.019362,2.5946293,2.4928098,2.5946293c0.9452343,0,1.7513733-0.5189486,2.1961927-1.3065281l-1.0378942-0.5282393
			c-0.2317548,0.5559578-0.5837822,0.7227459-1.0286279,0.7227459c-0.7691545,0-1.1211557-0.6393518-1.1211557-1.4826078
			c0-0.8432827,0.2964582-1.4827404,1.1211557-1.4827404c0.2223568,0,0.6672025,0.1205082,0.9266758,0.6764669L8.1875076,9.805872z"
			/>
		<path fill-rule="evenodd" clip-rule="evenodd" fill="#FFFFFF" d="M13.0135174,9.805872
			c-0.4726696-0.8617086-1.278677-1.2045765-2.2146187-1.2045765c-1.3622293,0-2.4465332,0.9636593-2.4465332,2.5946302
			c0,1.6586876,1.0194683,2.5946293,2.4928102,2.5946293c0.9452076,0,1.7513466-0.5189486,2.1961927-1.3065281l-1.0378942-0.5282393
			c-0.2316494,0.5559578-0.5838089,0.7227459-1.0286283,0.7227459c-0.769022,0-1.1213121-0.6393518-1.1213121-1.4826078
			c0-0.8432827,0.2966146-1.4827404,1.1213121-1.4827404c0.2223568,0,0.6671762,0.1205082,0.9267817,0.6764669L13.0135174,9.805872z
			"/>
	</g>
</g>
<g>
</g>
<g>
</g>
<g>
</g>
<g>
</g>
<g>
</g>
<g>
</g>
<g>
</g>
<g>
</g>
<g>
</g>
<g>
</g>
<g>
</g>
<g>
</g>
<g>
</g>
<g>
</g>
<g>
</g>
</svg>
