<?xml version="1.0" encoding="utf-8"?>
<!-- Generator: Adobe Illustrator 18.1.1, SVG Export Plug-In . SVG Version: 6.00 Build 0)  -->
<!DOCTYPE svg PUBLIC "-//W3C//DTD SVG 1.1//EN" "http://www.w3.org/Graphics/SVG/1.1/DTD/svg11.dtd">
<svg version="1.1" id="Dots_three_horizontal" xmlns="http://www.w3.org/2000/svg" xmlns:xlink="http://www.w3.org/1999/xlink"
	 x="0px" y="0px" viewBox="0 0 20 20" enable-background="new 0 0 20 20" xml:space="preserve">
<path fill="#FFFFFF" d="M10.001,7.8C8.786,7.8,7.8,8.785,7.8,10s0.986,2.2,2.201,2.2S12.2,11.215,12.2,10S11.216,7.8,10.001,7.8z
	 M3.001,7.8C1.786,7.8,0.8,8.785,0.8,10s0.986,2.2,2.201,2.2S5.2,11.214,5.2,10S4.216,7.8,3.001,7.8z M17.001,7.8
	C15.786,7.8,14.8,8.785,14.8,10s0.986,2.2,2.201,2.2S19.2,11.215,19.2,10S18.216,7.8,17.001,7.8z"/>
</svg>
