<?xml version="1.0" encoding="utf-8"?>
<!-- Generator: Adobe Illustrator 18.1.1, SVG Export Plug-In . SVG Version: 6.00 Build 0)  -->
<!DOCTYPE svg PUBLIC "-//W3C//DTD SVG 1.1//EN" "http://www.w3.org/Graphics/SVG/1.1/DTD/svg11.dtd">
<svg version="1.1" id="Emoji_neutral" xmlns="http://www.w3.org/2000/svg" xmlns:xlink="http://www.w3.org/1999/xlink" x="0px"
	 y="0px" viewBox="0 0 20 20" enable-background="new 0 0 20 20" xml:space="preserve">
<path fill="#FFFFFF" d="M10,0.4c-5.302,0-9.6,4.298-9.6,9.6s4.298,9.6,9.6,9.6c5.301,0,9.6-4.298,9.6-9.601
	C19.6,4.698,15.301,0.4,10,0.4z M10,17.599c-4.197,0-7.6-3.402-7.6-7.6c0-4.197,3.402-7.6,7.6-7.6c4.197,0,7.6,3.402,7.6,7.6
	S14.197,17.599,10,17.599z M12.5,6.251C11.672,6.251,11,7.034,11,8s0.672,1.75,1.5,1.75C13.329,9.75,14,8.967,14,8
	S13.329,6.251,12.5,6.251z M7.501,9.75C8.329,9.75,9,8.967,9,8S8.328,6.25,7.5,6.25S6,7.033,6,8S6.672,9.75,7.501,9.75z M13,12.25H7
	c-0.414,0-0.75,0.336-0.75,0.75S6.586,13.75,7,13.75h6c0.414,0,0.75-0.336,0.75-0.75C13.75,12.585,13.415,12.25,13,12.25z"/>
</svg>
