<?xml version="1.0" encoding="utf-8"?>
<!-- Generator: Adobe Illustrator 18.1.1, SVG Export Plug-In . SVG Version: 6.00 Build 0)  -->
<!DOCTYPE svg PUBLIC "-//W3C//DTD SVG 1.1//EN" "http://www.w3.org/Graphics/SVG/1.1/DTD/svg11.dtd">
<svg version="1.1" id="Eye" xmlns="http://www.w3.org/2000/svg" xmlns:xlink="http://www.w3.org/1999/xlink" x="0px" y="0px"
	 viewBox="0 0 20 20" enable-background="new 0 0 20 20" xml:space="preserve">
<path fill="#FFFFFF" d="M10,4.4C3.439,4.4,0,9.232,0,10c0,0.766,3.439,5.6,10,5.6c6.56,0,10-4.834,10-5.6C20,9.232,16.56,4.4,10,4.4
	z M10,14.307c-2.455,0-4.445-1.928-4.445-4.307S7.545,5.691,10,5.691s4.444,1.93,4.444,4.309S12.455,14.307,10,14.307z M10,10
	c-0.407-0.447,0.663-2.154,0-2.154c-1.228,0-2.223,0.965-2.223,2.154S8.772,12.154,10,12.154c1.227,0,2.223-0.965,2.223-2.154
	C12.223,9.453,10.346,10.379,10,10z"/>
</svg>
