<?xml version="1.0" encoding="utf-8"?>
<!-- Generator: Adobe Illustrator 18.1.1, SVG Export Plug-In . SVG Version: 6.00 Build 0)  -->
<!DOCTYPE svg PUBLIC "-//W3C//DTD SVG 1.1//EN" "http://www.w3.org/Graphics/SVG/1.1/DTD/svg11.dtd">
<svg version="1.1" id="Infinity" xmlns="http://www.w3.org/2000/svg" xmlns:xlink="http://www.w3.org/1999/xlink" x="0px" y="0px"
	 viewBox="0 0 20 20" enable-background="new 0 0 20 20" xml:space="preserve">
<path fill="#FFFFFF" d="M15.902,5.6c-2.079,0-4.358,1.158-5.902,2.916C8.455,6.758,6.175,5.6,4.096,5.6C2.116,5.6,0,6.756,0,10
	s2.116,4.398,4.096,4.4l0,0c2.079,0,4.358-1.158,5.903-2.916c1.544,1.758,3.823,2.916,5.902,2.916C17.882,14.4,20,13.244,20,10
	S17.882,5.6,15.902,5.6z M4.096,12.641C2.584,12.641,1.8,11.752,1.8,10s0.784-2.641,2.296-2.641c1.673,0,3.614,1.086,4.807,2.641
	C7.71,11.555,5.769,12.641,4.096,12.641z M15.902,12.641c-1.673,0-3.614-1.086-4.807-2.641c1.192-1.555,3.135-2.641,4.807-2.641
	c1.512,0,2.298,0.889,2.298,2.641S17.414,12.641,15.902,12.641z"/>
</svg>
