<?xml version="1.0" encoding="utf-8"?>
<!-- Generator: Adobe Illustrator 18.1.1, SVG Export Plug-In . SVG Version: 6.00 Build 0)  -->
<!DOCTYPE svg PUBLIC "-//W3C//DTD SVG 1.1//EN" "http://www.w3.org/Graphics/SVG/1.1/DTD/svg11.dtd">
<svg version="1.1" id="Mask" xmlns="http://www.w3.org/2000/svg" xmlns:xlink="http://www.w3.org/1999/xlink" x="0px" y="0px"
	 viewBox="0 0 20 20" enable-background="new 0 0 20 20" xml:space="preserve">
<path fill="#FFFFFF" d="M19.581,5.84c-0.043-0.469-0.462-0.803-0.92-0.73C16.919,5.388,12.835,7,10,7S3.081,5.388,1.339,5.11
	c-0.458-0.073-0.876,0.26-0.92,0.729C0.277,7.371,0,11.45,0,12.068c0,0.83,3.472,2.732,6,2.732c2.452,0,2.95-2.732,4-2.732
	s1.548,2.732,4,2.732c2.528,0,6-1.902,6-2.732C20,11.45,19.723,7.371,19.581,5.84z M7.66,10.72c-0.353,0.318-1.335,1.07-2.531,0.835
	S3.21,10.232,2.963,9.797c-0.06-0.106-0.041-0.24,0.044-0.317C3.36,9.162,4.342,8.41,5.539,8.645
	c1.196,0.235,1.919,1.323,2.166,1.758C7.764,10.509,7.745,10.643,7.66,10.72z M17.037,9.797c-0.246,0.436-0.969,1.523-2.166,1.758
	c-1.196,0.235-2.179-0.517-2.531-0.835c-0.086-0.077-0.104-0.211-0.045-0.317c0.246-0.436,0.969-1.523,2.166-1.758
	c1.196-0.235,2.179,0.517,2.531,0.835C17.078,9.557,17.097,9.691,17.037,9.797z"/>
</svg>
