<?xml version="1.0" encoding="utf-8"?>
<!-- Generator: Adobe Illustrator 18.1.1, SVG Export Plug-In . SVG Version: 6.00 Build 0)  -->
<!DOCTYPE svg PUBLIC "-//W3C//DTD SVG 1.1//EN" "http://www.w3.org/Graphics/SVG/1.1/DTD/svg11.dtd">
<svg version="1.1" id="Publish" xmlns="http://www.w3.org/2000/svg" xmlns:xlink="http://www.w3.org/1999/xlink" x="0px" y="0px"
	 viewBox="0 0 20 20" enable-background="new 0 0 20 20" xml:space="preserve">
<path fill="#FFFFFF" d="M9.967,8.193L5,13h3v6h4v-6h3L9.967,8.193z M18,1H2C0.9,1,0,1.9,0,3v12c0,1.1,0.9,2,2,2h4v-2H2V6h16v9h-4v2
	h4c1.1,0,2-0.9,2-2V3C20,1.9,19.1,1,18,1z M2.5,4.25c-0.414,0-0.75-0.336-0.75-0.75S2.086,2.75,2.5,2.75S3.25,3.086,3.25,3.5
	S2.914,4.25,2.5,4.25z M4.5,4.25c-0.414,0-0.75-0.336-0.75-0.75S4.086,2.75,4.5,2.75S5.25,3.086,5.25,3.5S4.914,4.25,4.5,4.25z
	 M18,4H6V3h12.019L18,4z"/>
</svg>
