<?xml version="1.0" encoding="utf-8"?>
<!-- Generator: Adobe Illustrator 18.1.1, SVG Export Plug-In . SVG Version: 6.00 Build 0)  -->
<!DOCTYPE svg PUBLIC "-//W3C//DTD SVG 1.1//EN" "http://www.w3.org/Graphics/SVG/1.1/DTD/svg11.dtd">
<svg version="1.1" id="Voicemail" xmlns="http://www.w3.org/2000/svg" xmlns:xlink="http://www.w3.org/1999/xlink" x="0px" y="0px"
	 viewBox="0 0 20 20" enable-background="new 0 0 20 20" xml:space="preserve">
<path fill="#FFFFFF" d="M15.4,5.801c-2.541,0-4.601,2.059-4.601,4.6c0,0.965,0.298,1.859,0.806,2.6H8.394
	c0.508-0.74,0.805-1.635,0.805-2.6c0-2.541-2.059-4.6-4.6-4.6c-2.54,0-4.6,2.059-4.6,4.6C0,12.941,2.059,15,4.6,15h10.8
	c2.54,0,4.6-2.059,4.6-4.6S17.94,5.801,15.4,5.801z M2,10.4c0-1.436,1.164-2.6,2.6-2.6s2.6,1.164,2.6,2.6S6.036,13,4.6,13
	S2,11.836,2,10.4z M15.4,13c-1.437,0-2.601-1.164-2.601-2.6s1.164-2.6,2.601-2.6c1.435,0,2.6,1.164,2.6,2.6S16.836,13,15.4,13z"/>
</svg>
