<?xml version="1.0" encoding="utf-8"?>
<!-- Generator: Adobe Illustrator 18.1.1, SVG Export Plug-In . SVG Version: 6.00 Build 0)  -->
<!DOCTYPE svg PUBLIC "-//W3C//DTD SVG 1.1//EN" "http://www.w3.org/Graphics/SVG/1.1/DTD/svg11.dtd">
<svg version="1.1" id="Layer_1" xmlns="http://www.w3.org/2000/svg" xmlns:xlink="http://www.w3.org/1999/xlink" x="0px" y="0px"
	 viewBox="45 -5 110 30" enable-background="new 45 -5 110 30" xml:space="preserve">
<path fill="#FFFFFF" d="M92.2109985,1.665c-2.0059967,0-3.5509949,1.0910001-4.852005,2.6999998l0.0019989-0.0109997L88.5169983-5
	c-2.6679993,0-4.8509979,2.3239999-5.2639999,5.7719998l0,0l-2.0320053,16.698c1.5390015,0,3.1710052-0.4449997,4.053009-1.5779991
	c0.7879944,1.0119991,1.9599915,1.8180008,3.6929932,1.8180008c4.5040054,0,7.5970001-5.2320004,7.5970001-10.1459999
	C96.5630035,3.0830002,94.3829956,1.665,92.2109985,1.665z M91.7969971,9.6879997
	c-0.4669952,2.7479992-1.9939957,4.6000004-3.4729919,4.6000004c-1.4900055,0-2.1190033-0.657999-2.1190033-0.657999
	c0.2770004-2.4020004,0.4620056-3.875,1.0039978-5.1429996C87.7539978,7.2190018,89.0320053,5.1950016,90.375,5.1950016
	C91.6780014,5.1940002,92.2639999,6.9429998,91.7969971,9.6879997z M80.2299957,5.7250004
	c0-1.96-1.8999939-4.0380001-5.1949921-4.0380001c-3.701004,0-7.7600021,2.71-8.3870087,8.1230001
	c-0.6349945,5.474,2.7720032,7.8940001,6.1950073,7.8940001c3.423996,0,5.2269974-1.3360004,7.0559998-3.1229992
	c-1.5810089-1.9899998-3.6160049-1.0639992-4.003006-0.8710003c-0.4259949,0.2129993-0.9850006,0.5100002-2.1210022,0.5100002
	c-1.3259964,0-2.6719971-0.6000004-2.6719971-3.0620003C79.5859985,10.3439999,80.2299957,7.6859999,80.2299957,5.7250004z
	 M76.0270004,6.0530005c-0.0550003,0.6040001-0.302002,1.6479998-4.5940018,2.2230005
	c0.9039993-3.2119999,2.6310043-3.4530001,3.4280014-3.4530001C75.6070023,4.8219995,76.0849991,5.4040003,76.0270004,6.0530005z
	 M124.2089996,1.756c-3.6320038,0-7.0569992,2.6740003-8.1080017,6.8779998
	c-1.052002,4.2050009,0.5469971,9.170001,5.8860016,9.170001s8.4069977-5.1760006,8.4069977-9.4720001
	C130.3939972,4.0340004,127.487999,1.756,124.2089996,1.756z M125.6800003,9.5620003
	c-0.1880035,1.9080009-1.0270004,4.7889996-3.3270035,4.7889996c-2.3079987,0-1.9789963-3.3810005-1.7549973-4.9860001
	c0.2399979-1.7209997,1.2060013-4.1550007,3.262001-4.1550007C125.7170029,5.21,125.8929977,7.4090004,125.6800003,9.5620003z
	 M110.8160019-4.908l-2.4140015,19.7970009l0,0c-0.2959976,2.4319992-1.0410004,5.2150002-1.0410004,5.2150002
	c3.7419968-0.9549999,5.25-2.1739998,5.6880035-5.6599998l0,0l0.0059967-0.0510006v-0.0020008c0-0.0020008,0-0.0020008,0-0.0020008
	l1.6220016-13.2489986C115.0889969-2.253,113.1800003-4.908,110.8160019-4.908z M107.8499985,2.027h-3.151001
	c0.0449982-0.4689999,0.1350021-1.2049999,0.2939987-1.7480001c0.2509995-0.8610001,0.8930054-1.6160002,2.0250015-1.7189999
	c1.090004-0.0999999,1.5820007-0.6800001,1.6969986-1.2909999c0.0879974-0.48,0.3949966-2.177,0.3949966-2.177
	c-6.3239975-0.0359998-8.4459991,2.625-8.810997,6.9349999c-1.0310059,0.0029998-2.0330048,0.4699998-2.1700058,1.5569997
	L97.9179916,5.21h1.987999l-1.7359924,14.2979994c-0.3050003,2.4899998-1.0079956,4.7700005-1.0079956,4.7700005
	c3.2339935-1.4120007,5.310997-2.6620007,5.776001-6.4650002L104.4720001,5.21h0.9869995
	c0.9669952,0.0010004,2.0599976-0.7550001,2.223999-1.9230003L107.8499985,2.027z M61.6620026,6.5740004
	c0,0-1.8240013,5.7189989-1.965004,6.1990004c-0.0509987-0.4799995-1.3849983-10.7519999-1.3849983-10.7519999
	c-3.1069984,0-4.769001,2.2060003-5.6450005,4.5509996c0,0-2.2179985,5.7369995-2.4000015,6.217001
	C50.257,12.3380013,49.927002,6.6300011,49.927002,6.6300011C49.7410011,3.7620001,47.1209984,2.026,45,2.026l2.552002,15.5649996
	c3.2589989-0.0100002,5.0039978-2.2129993,5.9259987-4.5529995c0,0,1.9510002-5.0620003,2.0299988-5.2919998
	c0.0209999,0.2200003,1.4040031,9.8449993,1.4040031,9.8449993c3.2619972,0,5.0209961-2.0610008,5.9699974-4.316L67.4589996,2.026
	C64.2340012,2.026,62.5370026,4.2290001,61.6620026,6.5740004z M148.3300018,6.5740004c0,0-1.8249969,5.7189989-1.9640045,6.1990004
	c-0.052002-0.4799995-1.3859863-10.7519999-1.3859863-10.7519999c-3.1070099,0-4.7680054,2.2060003-5.6450043,4.5509996
	c0,0-2.2180023,5.7369995-2.397995,6.217001c-0.0100098-0.4510002-0.3410034-6.1590004-0.3410034-6.1590004
	c-0.1880188-2.868-2.8059998-4.6040001-4.9290161-4.6040001l2.552002,15.5649986
	c3.2610168-0.0100002,5.0039978-2.2129993,5.9250183-4.5529995c0,0,1.9509888-5.0620003,2.0329895-5.2919998
	c0.019989,0.2200003,1.4039917,9.8449993,1.4039917,9.8449993c3.2600098,0,5.0210114-2.0610008,5.9680176-4.316L154.1260071,2.026
	C150.9020081,2.026,149.2050018,4.2290001,148.3300018,6.5740004z"/>
</svg>
