<svg width="48" height="48" version="1.1" viewBox="0 0 12.7 12.7" xml:space="preserve" xmlns="http://www.w3.org/2000/svg"><g transform="translate(-90.308 -137.59)"><rect x="91.049" y="139.34" width="11.217" height="9.2028" ry="1.6457" fill="#404040" stroke="#2978e2" stroke-linejoin="round" stroke-opacity=".89804" stroke-width="1.4358" style="paint-order:normal"/><path d="m93.22 142.62v2.6416h0.40016q0.68432 0 1.0439-0.33928 0.36246-0.33926 0.36246-0.98589 0-0.64373-0.35956-0.98009t-1.0468-0.33636zm-1.1164-0.8438h1.1773q0.98589 0 1.4672 0.14207 0.48424 0.13919 0.82931 0.47555 0.30447 0.29287 0.45235 0.67563 0.14789 0.38276 0.14789 0.867 0 0.49006-0.14789 0.87571-0.14788 0.38276-0.45235 0.67562-0.34796 0.33637-0.83511 0.47845-0.48715 0.13919-1.4614 0.13919h-1.1773zm4.5704 0h1.1222l1.1483 3.1954 1.1454-3.1954h1.1222l-1.6035 4.3292h-1.331z" fill="#f2f2f2" stroke-width=".10182" style="shape-padding:1.5878;white-space:pre" aria-label="DV"/></g></svg>
