<svg version="1.1" viewBox="0 0 400 140" xml:space="preserve" xmlns="http://www.w3.org/2000/svg"><style>
        #text { fill: #121212 }
        @media (prefers-color-scheme: dark) { #text { fill: #f2f2f2 } }
        </style><rect x="109.06" y="10.166" width="181.89" height="119.67" ry="18.077" fill="#404040" stroke="#2978e2" stroke-linejoin="round" stroke-opacity=".89804" stroke-width="9"/><path d="m138.31 53.322v32.543h6.8393c5.7742 0 9.9974-1.3081 12.67-3.9242 2.6909-2.6161 4.0363-6.7459 4.0363-12.389 0-5.606-1.3454-9.7077-4.0363-12.305-2.6722-2.6161-6.8954-3.9242-12.67-3.9242zm-5.6621-4.653h11.632c8.11 0 14.062 1.6911 17.855 5.0734 3.7934 3.3636 5.6901 8.6333 5.6901 15.809 0 7.2131-1.906 12.511-5.7181 15.893-3.8121 3.3823-9.7545 5.0734-17.827 5.0734h-11.632zm55.505 41.849-15.977-41.849h5.9143l13.258 35.234 13.286-35.234h5.8863l-15.949 41.849zm29.353-41.849h5.6901v25.423c0 4.4848 0.81287 7.7176 2.4386 9.6984 1.6257 1.9621 4.2606 2.9432 7.9045 2.9432 3.6252 0 6.2507-0.98105 7.8764-2.9432 1.6257-1.9808 2.4386-5.2136 2.4386-9.6984v-25.423h5.6901v26.124c0 5.4565-1.3548 9.5769-4.0644 12.361-2.6909 2.7843-6.6712 4.1765-11.941 4.1765-5.2883 0-9.2873-1.3922-11.997-4.1765-2.6909-2.7843-4.0363-6.9047-4.0363-12.361zm44.181 0h5.6621v41.849h-5.6621z" fill="#f2f2f2" stroke-linejoin="round" stroke-opacity=".89804" stroke-width="17.141" aria-label="DVUI"/></svg>
